# File created by Blade
# Date/Time:  Wed Apr 08 17:00:17 2015
# Frame Rate: 120.000 fps
#------------------------------------------------------
:FULLY-SPECIFIED
:DEGREES
2312
root 2.218681 35.948796 2.667754 -117.710401 -88.037646 110.565297
Spine 12.815095 1.825436 -4.482465
Head 5.161838 4.968087 2.820989
LeftShoulder -5.896260 6.800431 31.524169
LeftArm 10.317020 -36.144424 -36.097608
LeftForeArm 28.007550 -0.000000 2.594838
LeftHand -12.585256 -0.000000 -10.633949
LeftHandThumb1 -26.253704 0.000000 33.147579
RightShoulder -24.126088 -40.712083 -12.245102
RightArm 55.118195 54.341914 59.346716
RightForeArm -0.799763 0.000000 -0.942192
RightHand -2.169793 -0.000000 14.925243
RightHandThumb1 -24.326973 -0.000000 -32.862282
LeftUpLeg 11.990005 12.992503 6.041560
LeftLeg 6.352650 -0.000000 -0.000000
LeftFoot -11.623215 4.089912 -11.828232
LeftToeBase 8.880043 -0.000000 -0.000000
RightUpLeg 12.169481 -10.252306 -12.319435
RightLeg 2.175928 -0.000000 -0.000000
RightFoot -8.549441 5.883549 19.232155
RightToeBase 15.137505 -0.000000 -0.000000
2313
root 2.214792 35.948523 2.665892 -118.086071 -88.039925 110.948566
Spine 12.809591 1.825252 -4.481755
Head 5.079197 5.006621 2.820003
LeftShoulder -5.917492 6.803894 31.534452
LeftArm 10.372297 -36.195820 -36.137718
LeftForeArm 28.027796 -0.000000 2.539344
LeftHand -12.764035 -0.000000 -10.557800
LeftHandThumb1 -26.253704 0.000000 33.147579
RightShoulder -24.105460 -40.718363 -12.250422
RightArm 55.138120 54.340247 59.356202
RightForeArm -0.746011 -0.000000 -0.982988
RightHand -2.194071 -0.000000 14.890086
RightHandThumb1 -24.326973 -0.000000 -32.862282
LeftUpLeg 11.999482 12.986051 6.047406
LeftLeg 6.334436 -0.000000 -0.000000
LeftFoot -11.613283 4.089723 -11.864156
LeftToeBase 8.846847 -0.000000 -0.000000
RightUpLeg 12.174503 -10.249203 -12.309252
RightLeg 2.159951 -0.000000 -0.000000
RightFoot -8.547624 5.881567 19.231956
RightToeBase 15.132200 -0.000000 -0.000000
2314
root 2.211104 35.947943 2.663976 -118.574951 -88.042868 111.446059
Spine 12.804864 1.820333 -4.473785
Head 4.983664 5.060853 2.786902
LeftShoulder -5.880320 6.777026 31.560733
LeftArm 10.281808 -36.238945 -36.121403
LeftForeArm 28.053098 -0.000000 2.535626
LeftHand -12.820119 -0.000000 -10.343185
LeftHandThumb1 -26.253704 0.000000 33.147579
RightShoulder -24.094216 -40.716041 -12.273308
RightArm 55.195983 54.329594 59.417344
RightForeArm -0.720436 -0.000000 -1.012257
RightHand -2.192858 0.000000 14.895143
RightHandThumb1 -24.326973 -0.000000 -32.862282
LeftUpLeg 12.003445 12.980638 6.055199
LeftLeg 6.329874 -0.000000 -0.000000
LeftFoot -11.641492 4.130322 -11.832530
LeftToeBase 8.910119 -0.000000 -0.000000
RightUpLeg 12.177679 -10.238736 -12.295416
RightLeg 2.140624 -0.000000 -0.000000
RightFoot -8.540870 5.884268 19.225709
RightToeBase 15.130895 -0.000000 -0.000000
2315
root 2.208104 35.947872 2.661882 -118.809412 -88.045980 111.692287
Spine 12.794141 1.823882 -4.473452
Head 4.905290 5.083960 2.777553
LeftShoulder -5.890093 6.799537 31.571428
LeftArm 10.355607 -36.255697 -36.151166
LeftForeArm 28.183308 0.000000 2.466863
LeftHand -13.059417 -0.000000 -10.340176
LeftHandThumb1 -26.253704 0.000000 33.147579
RightShoulder -24.078392 -40.719560 -12.282965
RightArm 55.226095 54.338202 59.464396
RightForeArm -0.717404 -0.000000 -1.029768
RightHand -2.192765 0.000000 14.930133
RightHandThumb1 -24.326973 -0.000000 -32.862282
LeftUpLeg 12.002215 12.974481 6.058965
LeftLeg 6.319526 -0.000000 -0.000000
LeftFoot -11.632582 4.121008 -11.866207
LeftToeBase 8.853409 -0.000000 -0.000000
RightUpLeg 12.181203 -10.238945 -12.285145
RightLeg 2.118060 -0.000000 -0.000000
RightFoot -8.535148 5.888008 19.260941
RightToeBase 15.144460 -0.000000 -0.000000
2316
root 2.204188 35.946838 2.660153 -118.904197 -88.045745 111.790153
Spine 12.795253 1.810317 -4.472387
Head 4.827335 5.106249 2.734883
LeftShoulder -5.884282 6.785912 31.630760
LeftArm 10.355942 -36.227590 -36.224178
LeftForeArm 27.885491 -0.000000 2.470194
LeftHand -12.442385 -0.000000 -10.595265
LeftHandThumb1 -26.253704 0.000000 33.147579
RightShoulder -24.067093 -40.708622 -12.327469
RightArm 55.291001 54.321407 59.565390
RightForeArm -0.764535 -0.000000 -1.022230
RightHand -2.152201 -0.000000 14.998405
RightHandThumb1 -24.326973 -0.000000 -32.862282
LeftUpLeg 12.009638 12.975496 6.063649
LeftLeg 6.312914 -0.000000 -0.000000
LeftFoot -11.634089 4.124269 -11.850873
LeftToeBase 8.870538 -0.000000 -0.000000
RightUpLeg 12.190638 -10.235750 -12.281794
RightLeg 2.106565 -0.000000 -0.000000
RightFoot -8.545259 5.888354 19.243693
RightToeBase 15.147099 -0.000000 -0.000000
2317
root 2.200100 35.946693 2.657567 -119.338812 -88.052076 112.231074
Spine 12.791029 1.805886 -4.467731
Head 4.730437 5.151379 2.721548
LeftShoulder -5.872457 6.789274 31.632553
LeftArm 10.350641 -36.248799 -36.196997
LeftForeArm 27.960494 -0.000000 2.430813
LeftHand -12.722655 -0.000000 -10.717027
LeftHandThumb1 -26.253704 0.000000 33.147579
RightShoulder -24.037555 -40.703210 -12.347522
RightArm 55.315425 54.333494 59.609218
RightForeArm -0.800133 -0.000000 -1.029113
RightHand -2.165554 0.000000 15.068761
RightHandThumb1 -24.326973 -0.000000 -32.862282
LeftUpLeg 12.020147 12.971515 6.077169
LeftLeg 6.297513 -0.000000 -0.000000
LeftFoot -11.638603 4.142882 -11.847030
LeftToeBase 8.854816 -0.000000 -0.000000
RightUpLeg 12.195705 -10.237869 -12.265166
RightLeg 2.093782 -0.000000 -0.000000
RightFoot -8.541096 5.887534 19.237630
RightToeBase 15.139434 -0.000000 -0.000000
2318
root 2.197728 35.945952 2.655848 -119.419684 -88.056967 112.318800
Spine 12.794530 1.797214 -4.465333
Head 4.622436 5.183716 2.680951
LeftShoulder -5.862326 6.782060 31.640735
LeftArm 10.353949 -36.279506 -36.188079
LeftForeArm 27.943498 -0.000000 2.384109
LeftHand -12.757889 -0.000000 -10.622073
LeftHandThumb1 -26.253704 0.000000 33.147579
RightShoulder -24.066127 -40.663156 -12.324908
RightArm 55.366602 54.316206 59.601765
RightForeArm -0.867742 -0.000000 -1.069339
RightHand -2.211121 0.000000 15.168951
RightHandThumb1 -24.326973 -0.000000 -32.862282
LeftUpLeg 12.012821 12.963452 6.082078
LeftLeg 6.308398 -0.000000 -0.000000
LeftFoot -11.654899 4.146088 -11.854002
LeftToeBase 8.868990 -0.000000 -0.000000
RightUpLeg 12.191361 -10.224942 -12.253250
RightLeg 2.095492 -0.000000 -0.000000
RightFoot -8.554016 5.876717 19.259419
RightToeBase 15.152062 -0.000000 -0.000000
2319
root 2.195085 35.945749 2.654268 -119.528801 -88.061985 112.440779
Spine 12.787689 1.789999 -4.462845
Head 4.535211 5.217828 2.661776
LeftShoulder -5.849163 6.770107 31.655435
LeftArm 10.353182 -36.379156 -36.205295
LeftForeArm 27.975931 0.000000 2.362337
LeftHand -12.725260 -0.000000 -10.518544
LeftHandThumb1 -26.253704 0.000000 33.147579
RightShoulder -24.036541 -40.707008 -12.336225
RightArm 55.398255 54.353249 59.667090
RightForeArm -0.914174 -0.000000 -1.062867
RightHand -2.219708 0.000000 15.260119
RightHandThumb1 -24.326973 -0.000000 -32.862282
LeftUpLeg 11.999972 12.984354 6.095690
LeftLeg 6.319161 -0.000000 -0.000000
LeftFoot -11.657889 4.118504 -11.843586
LeftToeBase 8.875245 -0.000000 -0.000000
RightUpLeg 12.183138 -10.211451 -12.237268
RightLeg 2.093502 -0.000000 -0.000000
RightFoot -8.565194 5.854608 19.247430
RightToeBase 15.150881 -0.000000 -0.000000
2320
root 2.192028 35.945080 2.652498 -119.411222 -88.072480 112.328017
Spine 12.791998 1.776485 -4.456714
Head 4.456156 5.239944 2.642462
LeftShoulder -5.812567 6.751571 31.659469
LeftArm 10.306986 -36.546614 -36.183296
LeftForeArm 27.944809 0.000000 2.363764
LeftHand -12.701715 -0.000000 -10.547035
LeftHandThumb1 -26.253704 0.000000 33.147579
RightShoulder -24.024499 -40.726853 -12.335578
RightArm 55.429589 54.377189 59.701227
RightForeArm -0.968204 -0.000000 -1.075393
RightHand -2.242626 0.000000 15.362213
RightHandThumb1 -24.326973 -0.000000 -32.862282
LeftUpLeg 11.996638 12.960820 6.100596
LeftLeg 6.318708 -0.000000 -0.000000
LeftFoot -11.665859 4.137776 -11.850448
LeftToeBase 8.854635 -0.000000 -0.000000
RightUpLeg 12.182712 -10.222227 -12.230031
RightLeg 2.100646 -0.000000 -0.000000
RightFoot -8.565746 5.874595 19.259725
RightToeBase 15.166949 -0.000000 -0.000000
2321
root 2.189885 35.944985 2.650050 -119.445814 -88.077929 112.368363
Spine 12.794840 1.778835 -4.458634
Head 4.369244 5.256502 2.630299
LeftShoulder -5.802690 6.731505 31.673834
LeftArm 10.329423 -36.664393 -36.198802
LeftForeArm 27.932482 -0.000000 2.323839
LeftHand -12.731442 0.000000 -10.462124
LeftHandThumb1 -26.253704 0.000000 33.147579
RightShoulder -24.011333 -40.711196 -12.338794
RightArm 55.397059 54.373521 59.675261
RightForeArm -1.002964 0.000000 -1.094133
RightHand -2.270509 -0.000000 15.478448
RightHandThumb1 -24.326973 -0.000000 -32.862282
LeftUpLeg 11.991118 12.961277 6.111652
LeftLeg 6.326843 -0.000000 -0.000000
LeftFoot -11.672973 4.131285 -11.858330
LeftToeBase 8.880649 -0.000000 -0.000000
RightUpLeg 12.177382 -10.207456 -12.216119
RightLeg 2.107732 -0.000000 -0.000000
RightFoot -8.579623 5.859667 19.257401
RightToeBase 15.133468 -0.000000 -0.000000
2322
root 2.187362 35.944588 2.647822 -119.339747 -88.085896 112.268384
Spine 12.794747 1.772514 -4.457326
Head 4.287401 5.264610 2.617535
LeftShoulder -5.778083 6.707584 31.695028
LeftArm 10.333090 -36.747463 -36.217822
LeftForeArm 27.731535 -0.000000 2.272434
LeftHand -12.778371 -0.000000 -10.283980
LeftHandThumb1 -26.253704 0.000000 33.147579
RightShoulder -23.996013 -40.705492 -12.349482
RightArm 55.367731 54.360894 59.649951
RightForeArm -0.997253 -0.000000 -1.122142
RightHand -2.278145 -0.000000 15.545129
RightHandThumb1 -24.326973 -0.000000 -32.862282
LeftUpLeg 11.983517 12.969310 6.124880
LeftLeg 6.338344 -0.000000 -0.000000
LeftFoot -11.680002 4.102529 -11.862460
LeftToeBase 8.902862 -0.000000 -0.000000
RightUpLeg 12.171587 -10.205903 -12.204920
RightLeg 2.118351 -0.000000 -0.000000
RightFoot -8.592827 5.856098 19.259054
RightToeBase 15.174036 -0.000000 -0.000000
2323
root 2.185189 35.944241 2.645801 -119.042975 -88.093093 111.976918
Spine 12.799715 1.765068 -4.459277
Head 4.207216 5.290496 2.597787
LeftShoulder -5.738735 6.659356 31.717746
LeftArm 10.271257 -36.832818 -36.187435
LeftForeArm 27.749164 0.000000 2.275883
LeftHand -12.795729 -0.000000 -10.358699
LeftHandThumb1 -26.253704 0.000000 33.147579
RightShoulder -23.991770 -40.692372 -12.355585
RightArm 55.381676 54.360853 59.679271
RightForeArm -1.001526 -0.000000 -1.152380
RightHand -2.283349 -0.000000 15.579279
RightHandThumb1 -24.326973 -0.000000 -32.862282
LeftUpLeg 11.975397 12.964774 6.129237
LeftLeg 6.345239 -0.000000 -0.000000
LeftFoot -11.681249 4.100984 -11.850033
LeftToeBase 8.919524 -0.000000 -0.000000
RightUpLeg 12.170994 -10.192837 -12.195352
RightLeg 2.122750 -0.000000 -0.000000
RightFoot -8.609477 5.833095 19.268090
RightToeBase 15.145398 -0.000000 -0.000000
